<svg width="98" height="96" viewBox="0 0 98 96" fill="none" xmlns="http://www.w3.org/2000/svg">
<path d="M74.8863 95.9569C72.3067 95.9569 69.9579 94.4705 68.8536 92.1392L64.2537 82.4283H33.0666L28.5931 92.087C27.5002 94.4467 25.1364 95.9569 22.5359 95.9569H6.77888C1.79744 95.9569 -1.42892 90.6981 0.827997 86.2572L42.7804 3.70929C45.2544 -1.15866 52.2082 -1.15865 54.6822 3.7093L96.6347 86.2572C98.8916 90.6981 95.6652 95.9569 90.6838 95.9569H74.8863ZM48.5889 43.9785C47.7345 47.681 43.8895 57.0799 41.3262 63.061H56.1365C53.5732 57.0799 49.7282 47.681 48.8737 43.9785H48.5889Z" fill="#E7EFDA"/>
</svg>
