<svg width="96" height="120" viewBox="0 0 96 120" fill="none" xmlns="http://www.w3.org/2000/svg">
<path d="M8.1875 120C3.87278 120 0.375 116.502 0.375 112.188V7.8125C0.375 3.49778 3.87278 0 8.1875 0H41.2084C68.3751 0 90.7084 10.1667 90.7084 34.5C90.7084 46.8333 83.0417 54 75.2084 57C84.875 59.6667 95.0417 69.6667 95.0417 83.8333C95.0417 109.333 73.875 120 43.875 120H8.1875ZM45.7084 70.1667H33.5417V92.3333H45.7084C52.375 92.3333 59.0417 89.6667 59.0417 81.3333C59.0417 72.8333 52.375 70.1667 45.7084 70.1667ZM43.2084 27.6667H33.5417V48.1667H43.2084C49.8751 48.1667 55.7084 45.6667 55.7084 38C55.7084 30.1667 49.8751 27.6667 43.2084 27.6667Z" fill="#E7EFDA"/>
</svg>
