<svg width="104" height="96" viewBox="0 0 104 96" fill="none" xmlns="http://www.w3.org/2000/svg">
<path d="M55.9806 64.4642C53.5546 66.4317 50.0837 66.4368 47.6518 64.4766L28.5061 49.044V89.3332C28.5061 92.9913 25.5406 95.9568 21.8825 95.9568H7.01032C3.3522 95.9568 0.386719 92.9913 0.386719 89.3332V6.7286C0.386719 1.15002 6.86108 -1.92994 11.1892 1.58966L49.7317 32.9319C50.9489 33.9217 52.6935 33.9217 53.9107 32.9319L92.4531 1.58965C96.7813 -1.92995 103.256 1.15002 103.256 6.7286V89.3332C103.256 92.9913 100.29 95.9568 96.6321 95.9568H81.6186C77.9605 95.9568 74.995 92.9913 74.995 89.3332V49.044L55.9806 64.4642Z" fill="#E7EFDA"/>
</svg>
