<svg width="100" height="144" viewBox="0 0 100 144" fill="none" xmlns="http://www.w3.org/2000/svg">
<path fill-rule="evenodd" clip-rule="evenodd" d="M56.1327 102.864L58.8689 92.6236C59.0698 91.8717 58.6237 91.0991 57.8721 90.8972L47.604 88.1381C46.8508 87.9357 46.0764 88.3828 45.8751 89.1362L43.1389 99.3765C42.938 100.128 43.3841 100.901 44.1357 101.103L54.4038 103.862C55.157 104.064 55.9314 103.617 56.1327 102.864Z" fill="#4CAF50"/>
<path fill-rule="evenodd" clip-rule="evenodd" d="M56.1327 102.864L58.8689 92.6236C59.0698 91.8717 58.6237 91.0991 57.8721 90.8972L47.604 88.1381C46.8508 87.9357 46.0764 88.3828 45.8751 89.1362L43.1389 99.3765C42.938 100.128 43.3841 100.901 44.1357 101.103L54.4038 103.862C55.157 104.064 55.9314 103.617 56.1327 102.864Z" fill="#171717"/>
<path d="M56.1327 102.864L58.8689 92.6236C59.0698 91.8717 58.6237 91.0991 57.8721 90.8972L47.604 88.1381C46.8508 87.9357 46.0764 88.3828 45.8751 89.1362L43.1389 99.3765C42.938 100.128 43.3841 100.901 44.1357 101.103L54.4038 103.862C55.157 104.064 55.9314 103.617 56.1327 102.864Z" fill="#4CAF50"/>
<path fill-rule="evenodd" clip-rule="evenodd" d="M1.9014 10.1824C-1.79642 6.37894 0.898622 0 6.20339 0H28.2478C30.5446 0 32.6399 1.31119 33.6441 3.37688L55.4548 48.2455C58.9874 48.5768 62.3673 49.2377 65.5714 50.194L46.8062 8.46058C45.0209 4.4903 47.9252 0 52.2784 0H74.0019C77.3156 0 80.0019 2.68629 80.0019 6V57.2653C92.1329 66.0239 99.4339 80.1571 99.4339 96C99.4339 122.752 79.2099 144 50.1539 144C21.2259 144 1.00189 122.752 1.00189 96C1.00189 72.9599 16.4431 53.5357 39.6401 48.9997L1.9014 10.1824ZM81.4552 83.3654L71.0802 122.195C70.2239 125.4 66.9299 127.302 63.7265 126.441L24.7882 115.978C21.5912 115.119 19.694 111.833 20.5485 108.635L30.9236 69.8048C31.7799 66.6002 35.0739 64.6984 38.2773 65.5592L77.2156 76.0222C80.4126 76.8812 82.3098 80.1672 81.4552 83.3654ZM56.1327 102.864L58.8689 92.6236C59.0698 91.8717 58.6237 91.0991 57.8721 90.8972L47.604 88.1381C46.8508 87.9357 46.0764 88.3828 45.8751 89.1362L43.1389 99.3765C42.938 100.128 43.3841 100.901 44.1357 101.103L54.4038 103.862C55.157 104.064 55.9314 103.617 56.1327 102.864Z" fill="#4CAF50"/>
<path fill-rule="evenodd" clip-rule="evenodd" d="M56.1327 102.864L58.8689 92.6236C59.0698 91.8717 58.6237 91.0991 57.8721 90.8972L47.604 88.1381C46.8508 87.9357 46.0764 88.3828 45.8751 89.1362L43.1389 99.3765C42.938 100.128 43.3841 100.901 44.1357 101.103L54.4038 103.862C55.157 104.064 55.9314 103.617 56.1327 102.864Z" fill="#4CAF50"/>
</svg>
