<svg width="77" height="96" viewBox="0 0 77 96" fill="none" xmlns="http://www.w3.org/2000/svg">
<path d="M73.1694 86.7372C75.4264 90.8967 72.415 95.957 67.6826 95.957H53.2259C50.8126 95.957 48.6155 94.566 47.5833 92.3847L35.1574 66.1262H27.3002V89.7145C27.3002 93.1622 24.5053 95.957 21.0577 95.957H6.37531C2.92767 95.957 0.132812 93.1622 0.132812 89.7145V6.31477C0.132812 2.86713 2.92767 0.0722656 6.37531 0.0722656H36.2228C59.7944 0.0722656 76.4411 11.1256 76.4411 33.7651C76.4411 47.3488 70.0488 56.5377 59.5281 61.5983L73.1694 86.7372ZM37.6877 23.5108H27.3002V44.0195H37.6877C43.2809 44.0195 48.3415 41.6223 48.3415 33.7651C48.3415 26.1742 43.2809 23.5108 37.6877 23.5108Z" fill="#E7EFDA"/>
</svg>
