<svg width="87" height="96" viewBox="0 0 87 96" fill="none" xmlns="http://www.w3.org/2000/svg">
<path d="M6.955 95.957C1.89625 95.957 -1.06168 90.2553 1.85158 86.1196L28.8811 47.7483L2.04699 9.92698C-0.885838 5.79331 2.06981 0.0722656 7.13822 0.0722656H22.8485C24.9512 0.0722656 26.9127 1.13088 28.0667 2.88862L43.5302 26.4406L59.1246 2.87028C60.2806 1.12311 62.2359 0.0722656 64.3308 0.0722656H79.9221C84.9905 0.0722656 87.9462 5.7933 85.0133 9.92698L58.1792 47.7483L85.2087 86.1196C88.1219 90.2553 85.164 95.957 80.1052 95.957H64.4592C62.3669 95.957 60.4137 94.9088 59.2571 93.1652L43.5302 69.4555L27.9343 93.1469C26.7796 94.9011 24.8202 95.957 22.7202 95.957H6.955Z" fill="#E7EFDA"/>
</svg>
