<svg width="198" height="288" viewBox="0 0 198 288" fill="none" xmlns="http://www.w3.org/2000/svg">
<path fill-rule="evenodd" clip-rule="evenodd" d="M111.596 205.513L117.049 185.104C117.449 183.605 116.56 182.066 115.062 181.663L94.5974 176.164C93.0964 175.761 91.5529 176.652 91.1517 178.153L85.6984 198.563C85.298 200.062 86.187 201.601 87.685 202.004L108.15 207.503C109.651 207.906 111.194 207.015 111.596 205.513Z" fill="#4CAF50"/>
<path fill-rule="evenodd" clip-rule="evenodd" d="M111.596 205.513L117.049 185.104C117.449 183.605 116.56 182.066 115.062 181.663L94.5974 176.164C93.0964 175.761 91.5529 176.652 91.1517 178.153L85.6984 198.563C85.298 200.062 86.187 201.601 87.685 202.004L108.15 207.503C109.651 207.906 111.194 207.015 111.596 205.513Z" fill="#171717"/>
<path d="M111.596 205.513L117.049 185.104C117.449 183.605 116.56 182.066 115.062 181.663L94.5974 176.164C93.0964 175.761 91.5529 176.652 91.1517 178.153L85.6984 198.563C85.298 200.062 86.187 201.601 87.685 202.004L108.15 207.503C109.651 207.906 111.194 207.015 111.596 205.513Z" fill="#4CAF50"/>
<path d="M197.897 191.833C197.897 160.258 183.346 132.089 159.168 114.633V12.4583C159.168 5.85393 153.814 0.5 147.21 0.5H103.914C95.2377 0.5 89.4493 9.44942 93.0074 17.3624L130.407 100.539C124.022 98.6335 117.285 97.3163 110.245 96.656L66.7746 7.23032C64.7733 3.11328 60.5973 0.5 56.0196 0.5H12.0838C1.51108 0.5 -3.86029 13.2136 3.50967 20.7942L78.725 98.1592C32.4922 107.2 1.7169 145.913 1.7169 191.833C1.7169 245.152 42.0244 287.5 99.6795 287.5C157.59 287.5 197.897 245.152 197.897 191.833ZM162.065 166.652L141.387 244.042C139.68 250.429 133.115 254.219 126.731 252.504L49.1243 231.65C42.7525 229.938 38.9713 223.389 40.6745 217.015L61.3526 139.625C63.0591 133.238 69.6243 129.448 76.0088 131.163L153.615 152.016C159.987 153.729 163.768 160.278 162.065 166.652Z" fill="#4CAF50"/>
</svg>
