<svg width="927" height="194" viewBox="0 0 927 194" fill="none" xmlns="http://www.w3.org/2000/svg">
<path d="M821.955 168.957C816.896 168.957 813.938 163.255 816.852 159.12L843.881 120.748L817.047 82.927C814.114 78.7933 817.07 73.0723 822.138 73.0723H837.848C839.951 73.0723 841.913 74.1309 843.067 75.8886L858.53 99.4406L874.125 75.8703C875.281 74.1231 877.236 73.0723 879.331 73.0723H894.922C899.991 73.0723 902.946 78.7933 900.013 82.927L873.179 120.748L900.209 159.12C903.122 163.255 900.164 168.957 895.105 168.957H879.459C877.367 168.957 875.414 167.909 874.257 166.165L858.53 142.456L842.934 166.147C841.78 167.901 839.82 168.957 837.72 168.957H821.955Z" fill="#E7EFDA"/>
<path d="M716.402 162.715C716.402 166.162 713.608 168.957 710.16 168.957H662.051C658.603 168.957 655.809 166.162 655.809 162.715V79.3148C655.809 75.8671 658.603 73.0723 662.051 73.0723H677.399C680.847 73.0723 683.642 75.8671 683.642 79.3148V145.519H710.16C713.608 145.519 716.402 148.313 716.402 151.761V162.715Z" fill="#E7EFDA"/>
<path d="M555.188 169C550.873 169 547.375 165.502 547.375 161.188V56.8125C547.375 52.4978 550.873 49 555.188 49H588.208C615.375 49 637.708 59.1667 637.708 83.5C637.708 95.8333 630.042 103 622.208 106C631.875 108.667 642.042 118.667 642.042 132.833C642.042 158.333 620.875 169 590.875 169H555.188ZM592.708 119.167H580.542V141.333H592.708C599.375 141.333 606.042 138.667 606.042 130.333C606.042 121.833 599.375 119.167 592.708 119.167ZM590.208 76.6667H580.542V97.1667H590.208C596.875 97.1667 602.708 94.6667 602.708 87C602.708 79.1667 596.875 76.6667 590.208 76.6667Z" fill="#E7EFDA"/>
<path d="M485.981 137.464C483.555 139.432 480.084 139.437 477.652 137.477L458.506 122.044V162.333C458.506 165.991 455.541 168.957 451.883 168.957H437.01C433.352 168.957 430.387 165.991 430.387 162.333V79.7286C430.387 74.15 436.861 71.0701 441.189 74.5897L479.732 105.932C480.949 106.922 482.694 106.922 483.911 105.932L522.453 74.5897C526.781 71.07 533.256 74.15 533.256 79.7286V162.333C533.256 165.991 530.29 168.957 526.632 168.957H511.619C507.96 168.957 504.995 165.991 504.995 162.333V122.044L485.981 137.464Z" fill="#E7EFDA"/>
<path d="M410.661 73.0723C414.109 73.0723 416.904 75.8671 416.904 79.3148V162.715C416.904 166.162 414.109 168.957 410.661 168.957H395.313C391.865 168.957 389.07 166.162 389.07 162.715V79.3148C389.07 75.8671 391.865 73.0723 395.313 73.0723H410.661Z" fill="#E7EFDA"/>
<path d="M319.755 168.957H292.438C288.99 168.957 286.195 166.162 286.195 162.715V79.3148C286.195 75.8671 288.99 73.0723 292.438 73.0723H319.755C354.114 73.0723 375.022 93.5809 375.022 121.015C375.022 148.582 354.114 168.957 319.755 168.957ZM319.355 96.5108H314.029V145.519H319.355C337.867 145.519 346.922 133.799 346.922 121.015C346.922 108.363 337.867 96.5108 319.355 96.5108Z" fill="#E7EFDA"/>
<path d="M269.169 159.737C271.426 163.897 268.415 168.957 263.683 168.957H249.226C246.813 168.957 244.616 167.566 243.583 165.385L231.157 139.126H223.3V162.715C223.3 166.162 220.505 168.957 217.058 168.957H202.375C198.928 168.957 196.133 166.162 196.133 162.715V79.3148C196.133 75.8671 198.928 73.0723 202.375 73.0723H232.223C255.794 73.0723 272.441 84.1256 272.441 106.765C272.441 120.349 266.049 129.538 255.528 134.598L269.169 159.737ZM233.688 96.5108H223.3V117.019H233.688C239.281 117.019 244.342 114.622 244.342 106.765C244.342 99.1742 239.281 96.5108 233.688 96.5108Z" fill="#E7EFDA"/>
<path d="M161.886 168.957C159.307 168.957 156.958 167.471 155.854 165.139L151.254 155.428H120.067L115.593 165.087C114.5 167.447 112.136 168.957 109.536 168.957H93.7789C88.7974 168.957 85.5711 163.698 87.828 159.257L129.78 76.7093C132.254 71.8413 139.208 71.8414 141.682 76.7093L183.635 159.257C185.892 163.698 182.665 168.957 177.684 168.957H161.886ZM135.589 116.978C134.734 120.681 130.89 130.08 128.326 136.061H143.136C140.573 130.08 136.728 120.681 135.874 116.978H135.589Z" fill="#E7EFDA"/>
<path d="M29.6034 167.535C26.7231 166.839 25 164.128 25 161.164V149.663C25 144.245 30.6799 140.559 36.0981 140.559C43.932 140.559 48.3386 137.295 48.3386 129.461V56.6503C48.3386 52.4252 51.7637 49 55.9889 49H74.9617C79.1868 49 82.612 52.4252 82.612 56.6503V129.951C82.612 159.165 66.7809 168.957 42.4631 168.957C37.2891 168.957 32.8719 168.326 29.6034 167.535Z" fill="#E7EFDA"/>
<path fill-rule="evenodd" clip-rule="evenodd" d="M776.133 127.864L778.869 117.624C779.07 116.872 778.624 116.099 777.872 115.897L767.604 113.138C766.851 112.936 766.076 113.383 765.875 114.136L763.139 124.377C762.938 125.128 763.384 125.901 764.136 126.103L774.404 128.862C775.157 129.064 775.931 128.617 776.133 127.864Z" fill="#4CAF50"/>
<path fill-rule="evenodd" clip-rule="evenodd" d="M776.133 127.864L778.869 117.624C779.07 116.872 778.624 116.099 777.872 115.897L767.604 113.138C766.851 112.936 766.076 113.383 765.875 114.136L763.139 124.377C762.938 125.128 763.384 125.901 764.136 126.103L774.404 128.862C775.157 129.064 775.931 128.617 776.133 127.864Z" fill="#171717"/>
<path d="M776.133 127.864L778.869 117.624C779.07 116.872 778.624 116.099 777.872 115.897L767.604 113.138C766.851 112.936 766.076 113.383 765.875 114.136L763.139 124.377C762.938 125.128 763.384 125.901 764.136 126.103L774.404 128.862C775.157 129.064 775.931 128.617 776.133 127.864Z" fill="#4CAF50"/>
<path fill-rule="evenodd" clip-rule="evenodd" d="M721.901 35.1824C718.204 31.3789 720.899 25 726.203 25H748.248C750.545 25 752.64 26.3112 753.644 28.3769L775.455 73.2455C778.987 73.5768 782.367 74.2377 785.571 75.194L766.806 33.4606C765.021 29.4903 767.925 25 772.278 25H794.002C797.316 25 800.002 27.6863 800.002 31V82.2653C812.133 91.0239 819.434 105.157 819.434 121C819.434 147.752 799.21 169 770.154 169C741.226 169 721.002 147.752 721.002 121C721.002 97.9599 736.443 78.5357 759.64 73.9997L721.901 35.1824ZM801.455 108.365L791.08 147.195C790.224 150.4 786.93 152.302 783.727 151.441L744.788 140.978C741.591 140.119 739.694 136.833 740.549 133.635L750.924 94.8048C751.78 91.6002 755.074 89.6984 758.277 90.5592L797.216 101.022C800.413 101.881 802.31 105.167 801.455 108.365ZM776.133 127.864L778.869 117.624C779.07 116.872 778.624 116.099 777.872 115.897L767.604 113.138C766.851 112.936 766.076 113.383 765.875 114.136L763.139 124.377C762.938 125.128 763.384 125.901 764.136 126.103L774.404 128.862C775.157 129.064 775.931 128.617 776.133 127.864Z" fill="#4CAF50"/>
<path fill-rule="evenodd" clip-rule="evenodd" d="M776.133 127.864L778.869 117.624C779.07 116.872 778.624 116.099 777.872 115.897L767.604 113.138C766.851 112.936 766.076 113.383 765.875 114.136L763.139 124.377C762.938 125.128 763.384 125.901 764.136 126.103L774.404 128.862C775.157 129.064 775.931 128.617 776.133 127.864Z" fill="#4CAF50"/>
<path d="M821.955 168.957C816.896 168.957 813.938 163.255 816.852 159.12L843.881 120.748L817.047 82.927C814.114 78.7933 817.07 73.0723 822.138 73.0723H837.848C839.951 73.0723 841.913 74.1309 843.067 75.8886L858.53 99.4406L874.125 75.8703C875.281 74.1231 877.236 73.0723 879.331 73.0723H894.922C899.991 73.0723 902.946 78.7933 900.013 82.927L873.179 120.748L900.209 159.12C903.122 163.255 900.164 168.957 895.105 168.957H879.459C877.367 168.957 875.414 167.909 874.257 166.165L858.53 142.456L842.934 166.147C841.78 167.901 839.82 168.957 837.72 168.957H821.955Z" stroke="#171717" stroke-width="50"/>
<path d="M716.402 162.715C716.402 166.162 713.608 168.957 710.16 168.957H662.051C658.603 168.957 655.809 166.162 655.809 162.715V79.3148C655.809 75.8671 658.603 73.0723 662.051 73.0723H677.399C680.847 73.0723 683.642 75.8671 683.642 79.3148V145.519H710.16C713.608 145.519 716.402 148.313 716.402 151.761V162.715Z" stroke="#171717" stroke-width="50"/>
<path d="M555.188 169C550.873 169 547.375 165.502 547.375 161.188V56.8125C547.375 52.4978 550.873 49 555.188 49H588.208C615.375 49 637.708 59.1667 637.708 83.5C637.708 95.8333 630.042 103 622.208 106C631.875 108.667 642.042 118.667 642.042 132.833C642.042 158.333 620.875 169 590.875 169H555.188ZM592.708 119.167H580.542V141.333H592.708C599.375 141.333 606.042 138.667 606.042 130.333C606.042 121.833 599.375 119.167 592.708 119.167ZM590.208 76.6667H580.542V97.1667H590.208C596.875 97.1667 602.708 94.6667 602.708 87C602.708 79.1667 596.875 76.6667 590.208 76.6667Z" stroke="#171717" stroke-width="50"/>
<path d="M485.981 137.464C483.555 139.432 480.084 139.437 477.652 137.477L458.506 122.044V162.333C458.506 165.991 455.541 168.957 451.883 168.957H437.01C433.352 168.957 430.387 165.991 430.387 162.333V79.7286C430.387 74.15 436.861 71.0701 441.189 74.5897L479.732 105.932C480.949 106.922 482.694 106.922 483.911 105.932L522.453 74.5897C526.781 71.07 533.256 74.15 533.256 79.7286V162.333C533.256 165.991 530.29 168.957 526.632 168.957H511.619C507.96 168.957 504.995 165.991 504.995 162.333V122.044L485.981 137.464Z" stroke="#171717" stroke-width="50"/>
<path d="M410.661 73.0723C414.109 73.0723 416.904 75.8671 416.904 79.3148V162.715C416.904 166.162 414.109 168.957 410.661 168.957H395.313C391.865 168.957 389.07 166.162 389.07 162.715V79.3148C389.07 75.8671 391.865 73.0723 395.313 73.0723H410.661Z" stroke="#171717" stroke-width="50"/>
<path d="M319.755 168.957H292.438C288.99 168.957 286.195 166.162 286.195 162.715V79.3148C286.195 75.8671 288.99 73.0723 292.438 73.0723H319.755C354.114 73.0723 375.022 93.5809 375.022 121.015C375.022 148.582 354.114 168.957 319.755 168.957ZM319.355 96.5108H314.029V145.519H319.355C337.867 145.519 346.922 133.799 346.922 121.015C346.922 108.363 337.867 96.5108 319.355 96.5108Z" stroke="#171717" stroke-width="50"/>
<path d="M269.169 159.737C271.426 163.897 268.415 168.957 263.683 168.957H249.226C246.813 168.957 244.616 167.566 243.583 165.385L231.157 139.126H223.3V162.715C223.3 166.162 220.505 168.957 217.058 168.957H202.375C198.928 168.957 196.133 166.162 196.133 162.715V79.3148C196.133 75.8671 198.928 73.0723 202.375 73.0723H232.223C255.794 73.0723 272.441 84.1256 272.441 106.765C272.441 120.349 266.049 129.538 255.528 134.598L269.169 159.737ZM233.688 96.5108H223.3V117.019H233.688C239.281 117.019 244.342 114.622 244.342 106.765C244.342 99.1742 239.281 96.5108 233.688 96.5108Z" stroke="#171717" stroke-width="50"/>
<path d="M161.886 168.957C159.307 168.957 156.958 167.471 155.854 165.139L151.254 155.428H120.067L115.593 165.087C114.5 167.447 112.136 168.957 109.536 168.957H93.7789C88.7974 168.957 85.5711 163.698 87.828 159.257L129.78 76.7093C132.254 71.8413 139.208 71.8414 141.682 76.7093L183.635 159.257C185.892 163.698 182.665 168.957 177.684 168.957H161.886ZM135.589 116.978C134.734 120.681 130.89 130.08 128.326 136.061H143.136C140.573 130.08 136.728 120.681 135.874 116.978H135.589Z" stroke="#171717" stroke-width="50"/>
<path d="M29.6034 167.535C26.7231 166.839 25 164.128 25 161.164V149.663C25 144.245 30.6799 140.559 36.0981 140.559C43.932 140.559 48.3386 137.295 48.3386 129.461V56.6503C48.3386 52.4252 51.7637 49 55.9889 49H74.9617C79.1868 49 82.612 52.4252 82.612 56.6503V129.951C82.612 159.165 66.7809 168.957 42.4631 168.957C37.2891 168.957 32.8719 168.326 29.6034 167.535Z" stroke="#171717" stroke-width="50"/>
<path fill-rule="evenodd" clip-rule="evenodd" d="M776.133 127.864L778.869 117.624C779.07 116.872 778.624 116.099 777.872 115.897L767.604 113.138C766.851 112.936 766.076 113.383 765.875 114.136L763.139 124.377C762.938 125.128 763.384 125.901 764.136 126.103L774.404 128.862C775.157 129.064 775.931 128.617 776.133 127.864Z" stroke="#171717" stroke-width="50"/>
<path fill-rule="evenodd" clip-rule="evenodd" d="M776.133 127.864L778.869 117.624C779.07 116.872 778.624 116.099 777.872 115.897L767.604 113.138C766.851 112.936 766.076 113.383 765.875 114.136L763.139 124.377C762.938 125.128 763.384 125.901 764.136 126.103L774.404 128.862C775.157 129.064 775.931 128.617 776.133 127.864Z" stroke="#171717" stroke-width="50"/>
<path d="M776.133 127.864L778.869 117.624C779.07 116.872 778.624 116.099 777.872 115.897L767.604 113.138C766.851 112.936 766.076 113.383 765.875 114.136L763.139 124.377C762.938 125.128 763.384 125.901 764.136 126.103L774.404 128.862C775.157 129.064 775.931 128.617 776.133 127.864Z" stroke="#171717" stroke-width="50"/>
<path fill-rule="evenodd" clip-rule="evenodd" d="M721.901 35.1824C718.204 31.3789 720.899 25 726.203 25H748.248C750.545 25 752.64 26.3112 753.644 28.3769L775.455 73.2455C778.987 73.5768 782.367 74.2377 785.571 75.194L766.806 33.4606C765.021 29.4903 767.925 25 772.278 25H794.002C797.316 25 800.002 27.6863 800.002 31V82.2653C812.133 91.0239 819.434 105.157 819.434 121C819.434 147.752 799.21 169 770.154 169C741.226 169 721.002 147.752 721.002 121C721.002 97.9599 736.443 78.5357 759.64 73.9997L721.901 35.1824ZM801.455 108.365L791.08 147.195C790.224 150.4 786.93 152.302 783.727 151.441L744.788 140.978C741.591 140.119 739.694 136.833 740.549 133.635L750.924 94.8048C751.78 91.6002 755.074 89.6984 758.277 90.5592L797.216 101.022C800.413 101.881 802.31 105.167 801.455 108.365ZM776.133 127.864L778.869 117.624C779.07 116.872 778.624 116.099 777.872 115.897L767.604 113.138C766.851 112.936 766.076 113.383 765.875 114.136L763.139 124.377C762.938 125.128 763.384 125.901 764.136 126.103L774.404 128.862C775.157 129.064 775.931 128.617 776.133 127.864Z" stroke="#171717" stroke-width="50"/>
<path fill-rule="evenodd" clip-rule="evenodd" d="M776.133 127.864L778.869 117.624C779.07 116.872 778.624 116.099 777.872 115.897L767.604 113.138C766.851 112.936 766.076 113.383 765.875 114.136L763.139 124.377C762.938 125.128 763.384 125.901 764.136 126.103L774.404 128.862C775.157 129.064 775.931 128.617 776.133 127.864Z" stroke="#171717" stroke-width="50"/>
<path d="M821.955 168.957C816.896 168.957 813.938 163.255 816.852 159.12L843.881 120.748L817.047 82.927C814.114 78.7933 817.07 73.0723 822.138 73.0723H837.848C839.951 73.0723 841.913 74.1309 843.067 75.8886L858.53 99.4406L874.125 75.8703C875.281 74.1231 877.236 73.0723 879.331 73.0723H894.922C899.991 73.0723 902.946 78.7933 900.013 82.927L873.179 120.748L900.209 159.12C903.122 163.255 900.164 168.957 895.105 168.957H879.459C877.367 168.957 875.414 167.909 874.257 166.165L858.53 142.456L842.934 166.147C841.78 167.901 839.82 168.957 837.72 168.957H821.955Z" fill="#E7EFDA"/>
<path d="M716.402 162.715C716.402 166.162 713.608 168.957 710.16 168.957H662.051C658.603 168.957 655.809 166.162 655.809 162.715V79.3148C655.809 75.8671 658.603 73.0723 662.051 73.0723H677.399C680.847 73.0723 683.642 75.8671 683.642 79.3148V145.519H710.16C713.608 145.519 716.402 148.313 716.402 151.761V162.715Z" fill="#E7EFDA"/>
<path d="M555.188 169C550.873 169 547.375 165.502 547.375 161.188V56.8125C547.375 52.4978 550.873 49 555.188 49H588.208C615.375 49 637.708 59.1667 637.708 83.5C637.708 95.8333 630.042 103 622.208 106C631.875 108.667 642.042 118.667 642.042 132.833C642.042 158.333 620.875 169 590.875 169H555.188ZM592.708 119.167H580.542V141.333H592.708C599.375 141.333 606.042 138.667 606.042 130.333C606.042 121.833 599.375 119.167 592.708 119.167ZM590.208 76.6667H580.542V97.1667H590.208C596.875 97.1667 602.708 94.6667 602.708 87C602.708 79.1667 596.875 76.6667 590.208 76.6667Z" fill="#E7EFDA"/>
<path d="M485.981 137.464C483.555 139.432 480.084 139.437 477.652 137.477L458.506 122.044V162.333C458.506 165.991 455.541 168.957 451.883 168.957H437.01C433.352 168.957 430.387 165.991 430.387 162.333V79.7286C430.387 74.15 436.861 71.0701 441.189 74.5897L479.732 105.932C480.949 106.922 482.694 106.922 483.911 105.932L522.453 74.5897C526.781 71.07 533.256 74.15 533.256 79.7286V162.333C533.256 165.991 530.29 168.957 526.632 168.957H511.619C507.96 168.957 504.995 165.991 504.995 162.333V122.044L485.981 137.464Z" fill="#E7EFDA"/>
<path d="M410.661 73.0723C414.109 73.0723 416.904 75.8671 416.904 79.3148V162.715C416.904 166.162 414.109 168.957 410.661 168.957H395.313C391.865 168.957 389.07 166.162 389.07 162.715V79.3148C389.07 75.8671 391.865 73.0723 395.313 73.0723H410.661Z" fill="#E7EFDA"/>
<path d="M319.755 168.957H292.438C288.99 168.957 286.195 166.162 286.195 162.715V79.3148C286.195 75.8671 288.99 73.0723 292.438 73.0723H319.755C354.114 73.0723 375.022 93.5809 375.022 121.015C375.022 148.582 354.114 168.957 319.755 168.957ZM319.355 96.5108H314.029V145.519H319.355C337.867 145.519 346.922 133.799 346.922 121.015C346.922 108.363 337.867 96.5108 319.355 96.5108Z" fill="#E7EFDA"/>
<path d="M269.169 159.737C271.426 163.897 268.415 168.957 263.683 168.957H249.226C246.813 168.957 244.616 167.566 243.583 165.385L231.157 139.126H223.3V162.715C223.3 166.162 220.505 168.957 217.058 168.957H202.375C198.928 168.957 196.133 166.162 196.133 162.715V79.3148C196.133 75.8671 198.928 73.0723 202.375 73.0723H232.223C255.794 73.0723 272.441 84.1256 272.441 106.765C272.441 120.349 266.049 129.538 255.528 134.598L269.169 159.737ZM233.688 96.5108H223.3V117.019H233.688C239.281 117.019 244.342 114.622 244.342 106.765C244.342 99.1742 239.281 96.5108 233.688 96.5108Z" fill="#E7EFDA"/>
<path d="M161.886 168.957C159.307 168.957 156.958 167.471 155.854 165.139L151.254 155.428H120.067L115.593 165.087C114.5 167.447 112.136 168.957 109.536 168.957H93.7789C88.7974 168.957 85.5711 163.698 87.828 159.257L129.78 76.7093C132.254 71.8413 139.208 71.8414 141.682 76.7093L183.635 159.257C185.892 163.698 182.665 168.957 177.684 168.957H161.886ZM135.589 116.978C134.734 120.681 130.89 130.08 128.326 136.061H143.136C140.573 130.08 136.728 120.681 135.874 116.978H135.589Z" fill="#E7EFDA"/>
<path d="M29.6034 167.535C26.7231 166.839 25 164.128 25 161.164V149.663C25 144.245 30.6799 140.559 36.0981 140.559C43.932 140.559 48.3386 137.295 48.3386 129.461V56.6503C48.3386 52.4252 51.7637 49 55.9889 49H74.9617C79.1868 49 82.612 52.4252 82.612 56.6503V129.951C82.612 159.165 66.7809 168.957 42.4631 168.957C37.2891 168.957 32.8719 168.326 29.6034 167.535Z" fill="#E7EFDA"/>
<path fill-rule="evenodd" clip-rule="evenodd" d="M776.133 127.864L778.869 117.624C779.07 116.872 778.624 116.099 777.872 115.897L767.604 113.138C766.851 112.936 766.076 113.383 765.875 114.136L763.139 124.377C762.938 125.128 763.384 125.901 764.136 126.103L774.404 128.862C775.157 129.064 775.931 128.617 776.133 127.864Z" fill="#4CAF50"/>
<path fill-rule="evenodd" clip-rule="evenodd" d="M776.133 127.864L778.869 117.624C779.07 116.872 778.624 116.099 777.872 115.897L767.604 113.138C766.851 112.936 766.076 113.383 765.875 114.136L763.139 124.377C762.938 125.128 763.384 125.901 764.136 126.103L774.404 128.862C775.157 129.064 775.931 128.617 776.133 127.864Z" fill="#171717"/>
<path d="M776.133 127.864L778.869 117.624C779.07 116.872 778.624 116.099 777.872 115.897L767.604 113.138C766.851 112.936 766.076 113.383 765.875 114.136L763.139 124.377C762.938 125.128 763.384 125.901 764.136 126.103L774.404 128.862C775.157 129.064 775.931 128.617 776.133 127.864Z" fill="#4CAF50"/>
<path fill-rule="evenodd" clip-rule="evenodd" d="M721.901 35.1824C718.204 31.3789 720.899 25 726.203 25H748.248C750.545 25 752.64 26.3112 753.644 28.3769L775.455 73.2455C778.987 73.5768 782.367 74.2377 785.571 75.194L766.806 33.4606C765.021 29.4903 767.925 25 772.278 25H794.002C797.316 25 800.002 27.6863 800.002 31V82.2653C812.133 91.0239 819.434 105.157 819.434 121C819.434 147.752 799.21 169 770.154 169C741.226 169 721.002 147.752 721.002 121C721.002 97.9599 736.443 78.5357 759.64 73.9997L721.901 35.1824ZM801.455 108.365L791.08 147.195C790.224 150.4 786.93 152.302 783.727 151.441L744.788 140.978C741.591 140.119 739.694 136.833 740.549 133.635L750.924 94.8048C751.78 91.6002 755.074 89.6984 758.277 90.5592L797.216 101.022C800.413 101.881 802.31 105.167 801.455 108.365ZM776.133 127.864L778.869 117.624C779.07 116.872 778.624 116.099 777.872 115.897L767.604 113.138C766.851 112.936 766.076 113.383 765.875 114.136L763.139 124.377C762.938 125.128 763.384 125.901 764.136 126.103L774.404 128.862C775.157 129.064 775.931 128.617 776.133 127.864Z" fill="#4CAF50"/>
<path fill-rule="evenodd" clip-rule="evenodd" d="M776.133 127.864L778.869 117.624C779.07 116.872 778.624 116.099 777.872 115.897L767.604 113.138C766.851 112.936 766.076 113.383 765.875 114.136L763.139 124.377C762.938 125.128 763.384 125.901 764.136 126.103L774.404 128.862C775.157 129.064 775.931 128.617 776.133 127.864Z" fill="#4CAF50"/>
</svg>
