<svg width="885" height="146" viewBox="0 0 885 146" fill="none" xmlns="http://www.w3.org/2000/svg">
<path d="M814.849 47.0723C817.288 47.0723 819.563 48.3006 820.902 50.3398L835.533 72.623L850.291 50.3184C851.632 48.2915 853.901 47.0723 856.331 47.0723H871.922C877.802 47.0723 881.232 53.71 877.829 58.5059L851.403 95.75L878.026 133.544C881.406 138.342 877.974 144.957 872.105 144.957H856.459C854.032 144.957 851.766 143.741 850.424 141.718L835.533 119.269L820.77 141.697C819.43 143.732 817.156 144.957 814.72 144.957H798.955C793.086 144.957 789.654 138.342 793.034 133.544L819.656 95.75L793.231 58.5059C789.829 53.71 793.258 47.0723 799.139 47.0723H814.849Z" fill="#E7EFDA" stroke="#171717" stroke-width="2"/>
<path d="M654.399 47.0723L654.772 47.082C658.599 47.2762 661.641 50.4398 661.642 54.3145V119.519H687.16C691.16 119.519 694.402 122.761 694.402 126.761V137.715C694.402 141.715 691.16 144.957 687.16 144.957H639.051C635.051 144.957 631.809 141.715 631.809 137.715V54.3145C631.809 50.3148 635.051 47.0724 639.051 47.0723H654.399Z" fill="#E7EFDA" stroke="#171717" stroke-width="2"/>
<path d="M565.208 23C578.892 23 591.476 25.5564 600.674 31.2754C609.927 37.0289 615.708 45.9651 615.708 58.5C615.708 70.0696 609.199 77.286 601.968 80.8779C611.187 84.5497 620.042 94.3753 620.042 107.833C620.042 120.911 614.587 130.274 605.252 136.318C595.98 142.321 582.967 145 567.875 145H532.188C527.32 145 523.375 141.055 523.375 136.188V31.8125C523.375 26.9455 527.32 23 532.188 23H565.208ZM558.542 115.333H569.708C572.933 115.333 576.04 114.684 578.311 113.133C580.523 111.621 582.042 109.187 582.042 105.333C582.042 101.388 580.517 98.914 578.307 97.3848C576.038 95.8157 572.934 95.167 569.708 95.167H558.542V115.333ZM558.542 71.167H567.208C570.444 71.167 573.335 70.5554 575.39 69.1357C577.384 67.7581 578.708 65.5397 578.708 62C578.708 58.3687 577.377 56.1096 575.385 54.7148C573.332 53.278 570.444 52.667 567.208 52.667H558.542V71.167Z" fill="#E7EFDA" stroke="#171717" stroke-width="2"/>
<path d="M498.822 48.814C503.804 44.763 511.256 48.3082 511.256 54.729V137.333C511.256 141.544 507.842 144.957 503.632 144.957H488.618C484.408 144.956 480.995 141.544 480.995 137.333V99.1421L463.61 113.241C460.818 115.505 456.823 115.511 454.024 113.255L436.506 99.1333V137.333C436.506 141.544 433.093 144.956 428.883 144.957H414.011C409.8 144.957 406.387 141.544 406.387 137.333V54.729C406.387 48.3082 413.839 44.763 418.82 48.814L457.362 80.1558C458.212 80.8466 459.43 80.8466 460.279 80.1558L498.822 48.814Z" fill="#E7EFDA" stroke="#171717" stroke-width="2"/>
<path d="M387.661 47.0723L388.034 47.082C391.861 47.2762 394.903 50.4398 394.903 54.3145V137.715C394.903 141.715 391.661 144.957 387.661 144.957H372.312C368.313 144.957 365.07 141.715 365.07 137.715V54.3145C365.07 50.3148 368.313 47.0724 372.312 47.0723H387.661Z" fill="#E7EFDA" stroke="#171717" stroke-width="2"/>
<path d="M296.755 47.0723C314.132 47.0723 328.203 52.2606 337.941 61.0117C347.687 69.769 353.021 82.0312 353.021 96.0146C353.021 110.064 347.687 122.326 337.94 131.067C328.201 139.802 314.131 144.957 296.755 144.957H269.438C265.438 144.957 262.195 141.715 262.195 137.715V54.3145C262.195 50.3148 265.438 47.0724 269.438 47.0723H296.755ZM292.028 119.519H296.355C305.393 119.519 312.016 116.663 316.377 112.35C320.744 108.03 322.922 102.171 322.922 96.0146C322.922 89.9269 320.745 84.066 316.376 79.7285C312.014 75.3979 305.39 72.5107 296.355 72.5107H292.028V119.519Z" fill="#E7EFDA" stroke="#171717" stroke-width="2"/>
<path d="M209.223 47.0723C221.148 47.0723 231.449 49.866 238.79 55.6426C246.166 61.4462 250.441 70.1739 250.441 81.7646C250.441 95.3263 244.207 104.712 233.9 110.03L247.048 134.261C249.666 139.087 246.173 144.957 240.683 144.957H226.226C223.426 144.957 220.877 143.343 219.68 140.812L207.524 115.126H201.3V137.715C201.3 141.715 198.057 144.957 194.058 144.957H179.375C175.375 144.957 172.133 141.715 172.133 137.715V54.3145C172.133 50.3148 175.375 47.0724 179.375 47.0723H209.223ZM201.3 91.0195H210.688C213.365 91.0195 215.768 90.4421 217.485 89.0596C219.163 87.7091 220.342 85.4627 220.342 81.7646C220.342 78.2101 219.169 75.9539 217.478 74.5635C215.752 73.1451 213.344 72.5107 210.688 72.5107H201.3V91.0195Z" fill="#E7EFDA" stroke="#171717" stroke-width="2"/>
<path d="M105.889 51.2559C108.733 45.659 116.728 45.6592 119.573 51.2559L161.526 133.804C164.121 138.91 160.411 144.957 154.684 144.957H138.887C135.921 144.957 133.22 143.248 131.95 140.567L127.621 131.429H97.7051L93.5 140.507C92.2434 143.22 89.5261 144.957 86.5361 144.957H70.7793C65.0516 144.957 61.3415 138.91 63.9365 133.804L105.889 51.2559ZM112.731 95.0293C112.152 96.7689 111.376 98.86 110.53 101.028C109.344 104.069 108.002 107.314 106.838 110.061H118.625C117.46 107.314 116.119 104.069 114.933 101.028C114.087 98.86 113.31 96.7689 112.731 95.0293Z" fill="#E7EFDA" stroke="#171717" stroke-width="2"/>
<path d="M51.9619 23C56.7392 23.0001 60.6123 26.873 60.6123 31.6504V104.95C60.6123 119.733 56.6017 129.81 49.3135 136.163C42.053 142.492 31.7282 144.957 19.4629 144.957C14.2104 144.957 9.71422 144.317 6.36816 143.508C2.94663 142.68 1 139.487 1 136.164V124.663L1.00488 124.375C1.10253 121.415 2.69765 118.972 4.91113 117.284C7.18779 115.549 10.1765 114.559 13.0977 114.559C16.9012 114.559 19.6807 113.763 21.5029 112.19C23.2957 110.644 24.3389 108.191 24.3389 104.461V31.6504C24.3389 26.873 28.2118 23 32.9893 23H51.9619Z" fill="#E7EFDA" stroke="#171717" stroke-width="2"/>
<path fill-rule="evenodd" clip-rule="evenodd" d="M753.133 102.864L755.869 92.6236C756.07 91.8717 755.624 91.0991 754.872 90.8972L744.604 88.1381C743.851 87.9357 743.076 88.3828 742.875 89.1362L740.139 99.3765C739.938 100.128 740.384 100.901 741.136 101.103L751.404 103.862C752.157 104.064 752.931 103.617 753.133 102.864Z" fill="#4CAF50"/>
<path fill-rule="evenodd" clip-rule="evenodd" d="M753.133 102.864L755.869 92.6236C756.07 91.8717 755.624 91.0991 754.872 90.8972L744.604 88.1381C743.851 87.9357 743.076 88.3828 742.875 89.1362L740.139 99.3765C739.938 100.128 740.384 100.901 741.136 101.103L751.404 103.862C752.157 104.064 752.931 103.617 753.133 102.864Z" fill="#171717"/>
<path d="M753.133 102.864L755.869 92.6236C756.07 91.8717 755.624 91.0991 754.872 90.8972L744.604 88.1381C743.851 87.9357 743.076 88.3828 742.875 89.1362L740.139 99.3765C739.938 100.128 740.384 100.901 741.136 101.103L751.404 103.862C752.157 104.064 752.931 103.617 753.133 102.864Z" fill="#4CAF50"/>
<path fill-rule="evenodd" clip-rule="evenodd" d="M698.901 10.1824C695.204 6.37894 697.899 0 703.203 0H725.248C727.545 0 729.64 1.31119 730.644 3.37688L752.455 48.2455C755.987 48.5768 759.367 49.2377 762.571 50.194L743.806 8.46058C742.021 4.4903 744.925 0 749.278 0H771.002C774.316 0 777.002 2.68629 777.002 6V57.2653C789.133 66.0239 796.434 80.1571 796.434 96C796.434 122.752 776.21 144 747.154 144C718.226 144 698.002 122.752 698.002 96C698.002 72.9599 713.443 53.5357 736.64 48.9997L698.901 10.1824ZM778.455 83.3654L768.08 122.195C767.224 125.4 763.93 127.302 760.727 126.441L721.788 115.978C718.591 115.119 716.694 111.833 717.549 108.635L727.924 69.8048C728.78 66.6002 732.074 64.6984 735.277 65.5592L774.216 76.0222C777.413 76.8812 779.31 80.1672 778.455 83.3654ZM753.133 102.864L755.869 92.6236C756.07 91.8717 755.624 91.0991 754.872 90.8972L744.604 88.1381C743.851 87.9357 743.076 88.3828 742.875 89.1362L740.139 99.3765C739.938 100.128 740.384 100.901 741.136 101.103L751.404 103.862C752.157 104.064 752.931 103.617 753.133 102.864Z" fill="#4CAF50"/>
<path fill-rule="evenodd" clip-rule="evenodd" d="M753.133 102.864L755.869 92.6236C756.07 91.8717 755.624 91.0991 754.872 90.8972L744.604 88.1381C743.851 87.9357 743.076 88.3828 742.875 89.1362L740.139 99.3765C739.938 100.128 740.384 100.901 741.136 101.103L751.404 103.862C752.157 104.064 752.931 103.617 753.133 102.864Z" fill="#4CAF50"/>
</svg>
