<svg width="883" height="144" viewBox="0 0 883 144" fill="none" xmlns="http://www.w3.org/2000/svg">
<path d="M796.955 143.957C791.896 143.957 788.938 138.255 791.852 134.12L818.881 95.7483L792.047 57.927C789.114 53.7933 792.07 48.0723 797.138 48.0723H812.848C814.951 48.0723 816.913 49.1309 818.067 50.8886L833.53 74.4406L849.125 50.8703C850.281 49.1231 852.236 48.0723 854.331 48.0723H869.922C874.99 48.0723 877.946 53.7933 875.013 57.927L848.179 95.7483L875.209 134.12C878.122 138.255 875.164 143.957 870.105 143.957H854.459C852.367 143.957 850.414 142.909 849.257 141.165L833.53 117.456L817.934 141.147C816.78 142.901 814.82 143.957 812.72 143.957H796.955Z" fill="#E7EFDA"/>
<path d="M691.402 137.715C691.402 141.162 688.608 143.957 685.16 143.957H637.051C633.603 143.957 630.809 141.162 630.809 137.715V54.3148C630.809 50.8671 633.603 48.0723 637.051 48.0723H652.399C655.847 48.0723 658.642 50.8671 658.642 54.3148V120.519H685.16C688.608 120.519 691.402 123.313 691.402 126.761V137.715Z" fill="#E7EFDA"/>
<path d="M530.188 144C525.873 144 522.375 140.502 522.375 136.188V31.8125C522.375 27.4978 525.873 24 530.187 24H563.208C590.375 24 612.708 34.1667 612.708 58.5C612.708 70.8333 605.042 78 597.208 81C606.875 83.6667 617.042 93.6667 617.042 107.833C617.042 133.333 595.875 144 565.875 144H530.188ZM567.708 94.1667H555.542V116.333H567.708C574.375 116.333 581.042 113.667 581.042 105.333C581.042 96.8333 574.375 94.1667 567.708 94.1667ZM565.208 51.6667H555.542V72.1667H565.208C571.875 72.1667 577.708 69.6667 577.708 62C577.708 54.1667 571.875 51.6667 565.208 51.6667Z" fill="#E7EFDA"/>
<path d="M460.981 112.464C458.555 114.432 455.084 114.437 452.652 112.477L433.506 97.044V137.333C433.506 140.991 430.541 143.957 426.882 143.957H412.01C408.352 143.957 405.387 140.991 405.387 137.333V54.7286C405.387 49.15 411.861 46.0701 416.189 49.5897L454.732 80.9319C455.949 81.9217 457.694 81.9217 458.911 80.9319L497.453 49.5897C501.781 46.07 508.256 49.15 508.256 54.7286V137.333C508.256 140.991 505.29 143.957 501.632 143.957H486.619C482.96 143.957 479.995 140.991 479.995 137.333V97.044L460.981 112.464Z" fill="#E7EFDA"/>
<path d="M385.661 48.0723C389.109 48.0723 391.904 50.8671 391.904 54.3148V137.715C391.904 141.162 389.109 143.957 385.661 143.957H370.313C366.865 143.957 364.07 141.162 364.07 137.715V54.3148C364.07 50.8671 366.865 48.0723 370.313 48.0723H385.661Z" fill="#E7EFDA"/>
<path d="M294.755 143.957H267.438C263.99 143.957 261.195 141.162 261.195 137.715V54.3148C261.195 50.8671 263.99 48.0723 267.438 48.0723H294.755C329.114 48.0723 350.022 68.5809 350.022 96.0146C350.022 123.582 329.114 143.957 294.755 143.957ZM294.355 71.5108H289.029V120.519H294.355C312.867 120.519 321.922 108.799 321.922 96.0146C321.922 83.3632 312.867 71.5108 294.355 71.5108Z" fill="#E7EFDA"/>
<path d="M244.169 134.737C246.426 138.897 243.415 143.957 238.683 143.957H224.226C221.813 143.957 219.616 142.566 218.583 140.385L206.157 114.126H198.3V137.715C198.3 141.162 195.505 143.957 192.058 143.957H177.375C173.928 143.957 171.133 141.162 171.133 137.715V54.3148C171.133 50.8671 173.928 48.0723 177.375 48.0723H207.223C230.794 48.0723 247.441 59.1256 247.441 81.7651C247.441 95.3488 241.049 104.538 230.528 109.598L244.169 134.737ZM208.688 71.5108H198.3V92.0194H208.688C214.281 92.0194 219.342 89.6223 219.342 81.7651C219.342 74.1742 214.281 71.5108 208.688 71.5108Z" fill="#E7EFDA"/>
<path d="M136.886 143.957C134.307 143.957 131.958 142.471 130.854 140.139L126.254 130.428H95.0666L90.5931 140.087C89.5002 142.447 87.1364 143.957 84.5359 143.957H68.7789C63.7974 143.957 60.5711 138.698 62.828 134.257L104.78 51.7093C107.254 46.8413 114.208 46.8414 116.682 51.7093L158.635 134.257C160.892 138.698 157.665 143.957 152.684 143.957H136.886ZM110.589 91.9785C109.734 95.681 105.889 105.08 103.326 111.061H118.136C115.573 105.08 111.728 95.681 110.874 91.9785H110.589Z" fill="#E7EFDA"/>
<path d="M4.60341 142.535C1.72309 141.839 0 139.128 0 136.164V124.663C0 119.245 5.67994 115.559 11.0981 115.559C18.932 115.559 23.3386 112.295 23.3386 104.461V31.6503C23.3386 27.4252 26.7637 24 30.9889 24H49.9617C54.1868 24 57.612 27.4252 57.612 31.6503V104.951C57.612 134.165 41.7809 143.957 17.4631 143.957C12.2891 143.957 7.87189 143.326 4.60341 142.535Z" fill="#E7EFDA"/>
<path fill-rule="evenodd" clip-rule="evenodd" d="M751.133 102.864L753.869 92.6236C754.07 91.8717 753.624 91.0991 752.872 90.8972L742.604 88.1381C741.851 87.9357 741.076 88.3828 740.875 89.1362L738.139 99.3765C737.938 100.128 738.384 100.901 739.136 101.103L749.404 103.862C750.157 104.064 750.931 103.617 751.133 102.864Z" fill="#4CAF50"/>
<path fill-rule="evenodd" clip-rule="evenodd" d="M751.133 102.864L753.869 92.6236C754.07 91.8717 753.624 91.0991 752.872 90.8972L742.604 88.1381C741.851 87.9357 741.076 88.3828 740.875 89.1362L738.139 99.3765C737.938 100.128 738.384 100.901 739.136 101.103L749.404 103.862C750.157 104.064 750.931 103.617 751.133 102.864Z" fill="#171717"/>
<path d="M751.133 102.864L753.869 92.6236C754.07 91.8717 753.624 91.0991 752.872 90.8972L742.604 88.1381C741.851 87.9357 741.076 88.3828 740.875 89.1362L738.139 99.3765C737.938 100.128 738.384 100.901 739.136 101.103L749.404 103.862C750.157 104.064 750.931 103.617 751.133 102.864Z" fill="#4CAF50"/>
<path fill-rule="evenodd" clip-rule="evenodd" d="M696.901 10.1824C693.204 6.37894 695.899 0 701.203 0H723.248C725.545 0 727.64 1.31119 728.644 3.37688L750.455 48.2455C753.987 48.5768 757.367 49.2377 760.571 50.194L741.806 8.46058C740.021 4.4903 742.925 0 747.278 0H769.002C772.316 0 775.002 2.68629 775.002 6V57.2653C787.133 66.0239 794.434 80.1571 794.434 96C794.434 122.752 774.21 144 745.154 144C716.226 144 696.002 122.752 696.002 96C696.002 72.9599 711.443 53.5357 734.64 48.9997L696.901 10.1824ZM776.455 83.3654L766.08 122.195C765.224 125.4 761.93 127.302 758.727 126.441L719.788 115.978C716.591 115.119 714.694 111.833 715.549 108.635L725.924 69.8048C726.78 66.6002 730.074 64.6984 733.277 65.5592L772.216 76.0222C775.413 76.8812 777.31 80.1672 776.455 83.3654ZM751.133 102.864L753.869 92.6236C754.07 91.8717 753.624 91.0991 752.872 90.8972L742.604 88.1381C741.851 87.9357 741.076 88.3828 740.875 89.1362L738.139 99.3765C737.938 100.128 738.384 100.901 739.136 101.103L749.404 103.862C750.157 104.064 750.931 103.617 751.133 102.864Z" fill="#4CAF50"/>
<path fill-rule="evenodd" clip-rule="evenodd" d="M751.133 102.864L753.869 92.6236C754.07 91.8717 753.624 91.0991 752.872 90.8972L742.604 88.1381C741.851 87.9357 741.076 88.3828 740.875 89.1362L738.139 99.3765C737.938 100.128 738.384 100.901 739.136 101.103L749.404 103.862C750.157 104.064 750.931 103.617 751.133 102.864Z" fill="#4CAF50"/>
</svg>
